<mxfile host="65bd71144e">
    <diagram name="Pagina-1" id="lk-usPlRgp-3i5gw0hmq">
        <mxGraphModel dx="1063" dy="607" grid="1" gridSize="10" guides="1" tooltips="1" connect="1" arrows="1" fold="1" page="1" pageScale="1" pageWidth="827" pageHeight="1169" math="0" shadow="0">
            <root>
                <mxCell id="0"/>
                <mxCell id="1" parent="0"/>
                <mxCell id="8baIQIglKr2Zo1Fmop3Y-1" value="&lt;b&gt;QuizItem&lt;/b&gt;" style="swimlane;fontStyle=0;childLayout=stackLayout;horizontal=1;startSize=26;fillColor=none;horizontalStack=0;resizeParent=1;resizeParentMax=0;resizeLast=0;collapsible=1;marginBottom=0;whiteSpace=wrap;html=1;" parent="1" vertex="1">
                    <mxGeometry x="120" y="200" width="170" height="182" as="geometry"/>
                </mxCell>
                <mxCell id="8baIQIglKr2Zo1Fmop3Y-2" value="- title: string" style="text;strokeColor=none;fillColor=none;align=left;verticalAlign=top;spacingLeft=4;spacingRight=4;overflow=hidden;rotatable=0;points=[[0,0.5],[1,0.5]];portConstraint=eastwest;whiteSpace=wrap;html=1;" parent="8baIQIglKr2Zo1Fmop3Y-1" vertex="1">
                    <mxGeometry y="26" width="170" height="26" as="geometry"/>
                </mxCell>
                <mxCell id="8baIQIglKr2Zo1Fmop3Y-5" value="- year: int" style="text;strokeColor=none;fillColor=none;align=left;verticalAlign=top;spacingLeft=4;spacingRight=4;overflow=hidden;rotatable=0;points=[[0,0.5],[1,0.5]];portConstraint=eastwest;whiteSpace=wrap;html=1;" parent="8baIQIglKr2Zo1Fmop3Y-1" vertex="1">
                    <mxGeometry y="52" width="170" height="26" as="geometry"/>
                </mxCell>
                <mxCell id="8baIQIglKr2Zo1Fmop3Y-6" value="- description: string" style="text;strokeColor=none;fillColor=none;align=left;verticalAlign=top;spacingLeft=4;spacingRight=4;overflow=hidden;rotatable=0;points=[[0,0.5],[1,0.5]];portConstraint=eastwest;whiteSpace=wrap;html=1;" parent="8baIQIglKr2Zo1Fmop3Y-1" vertex="1">
                    <mxGeometry y="78" width="170" height="26" as="geometry"/>
                </mxCell>
                <mxCell id="8baIQIglKr2Zo1Fmop3Y-7" value="- link: string" style="text;strokeColor=none;fillColor=none;align=left;verticalAlign=top;spacingLeft=4;spacingRight=4;overflow=hidden;rotatable=0;points=[[0,0.5],[1,0.5]];portConstraint=eastwest;whiteSpace=wrap;html=1;" parent="8baIQIglKr2Zo1Fmop3Y-1" vertex="1">
                    <mxGeometry y="104" width="170" height="26" as="geometry"/>
                </mxCell>
                <mxCell id="8baIQIglKr2Zo1Fmop3Y-8" value="- image: string" style="text;strokeColor=none;fillColor=none;align=left;verticalAlign=top;spacingLeft=4;spacingRight=4;overflow=hidden;rotatable=0;points=[[0,0.5],[1,0.5]];portConstraint=eastwest;whiteSpace=wrap;html=1;" parent="8baIQIglKr2Zo1Fmop3Y-1" vertex="1">
                    <mxGeometry y="130" width="170" height="26" as="geometry"/>
                </mxCell>
                <mxCell id="8baIQIglKr2Zo1Fmop3Y-9" value="- submissionDate: DateTime&lt;br&gt;" style="text;strokeColor=none;fillColor=none;align=left;verticalAlign=top;spacingLeft=4;spacingRight=4;overflow=hidden;rotatable=0;points=[[0,0.5],[1,0.5]];portConstraint=eastwest;whiteSpace=wrap;html=1;" parent="8baIQIglKr2Zo1Fmop3Y-1" vertex="1">
                    <mxGeometry y="156" width="170" height="26" as="geometry"/>
                </mxCell>
                <mxCell id="8baIQIglKr2Zo1Fmop3Y-10" value="&lt;b&gt;User&lt;/b&gt;" style="swimlane;fontStyle=0;childLayout=stackLayout;horizontal=1;startSize=26;fillColor=none;horizontalStack=0;resizeParent=1;resizeParentMax=0;resizeLast=0;collapsible=1;marginBottom=0;whiteSpace=wrap;html=1;" parent="1" vertex="1">
                    <mxGeometry x="560" y="239" width="140" height="104" as="geometry"/>
                </mxCell>
                <mxCell id="8baIQIglKr2Zo1Fmop3Y-11" value="- email: string" style="text;strokeColor=none;fillColor=none;align=left;verticalAlign=top;spacingLeft=4;spacingRight=4;overflow=hidden;rotatable=0;points=[[0,0.5],[1,0.5]];portConstraint=eastwest;whiteSpace=wrap;html=1;" parent="8baIQIglKr2Zo1Fmop3Y-10" vertex="1">
                    <mxGeometry y="26" width="140" height="26" as="geometry"/>
                </mxCell>
                <mxCell id="8baIQIglKr2Zo1Fmop3Y-13" value="- fullName: string" style="text;strokeColor=none;fillColor=none;align=left;verticalAlign=top;spacingLeft=4;spacingRight=4;overflow=hidden;rotatable=0;points=[[0,0.5],[1,0.5]];portConstraint=eastwest;whiteSpace=wrap;html=1;" parent="8baIQIglKr2Zo1Fmop3Y-10" vertex="1">
                    <mxGeometry y="52" width="140" height="26" as="geometry"/>
                </mxCell>
                <mxCell id="8baIQIglKr2Zo1Fmop3Y-14" value="- password: string" style="text;strokeColor=none;fillColor=none;align=left;verticalAlign=top;spacingLeft=4;spacingRight=4;overflow=hidden;rotatable=0;points=[[0,0.5],[1,0.5]];portConstraint=eastwest;whiteSpace=wrap;html=1;" parent="8baIQIglKr2Zo1Fmop3Y-10" vertex="1">
                    <mxGeometry y="78" width="140" height="26" as="geometry"/>
                </mxCell>
                <mxCell id="8baIQIglKr2Zo1Fmop3Y-18" value="" style="endArrow=none;html=1;rounded=0;" parent="1" source="8baIQIglKr2Zo1Fmop3Y-1" target="8baIQIglKr2Zo1Fmop3Y-10" edge="1">
                    <mxGeometry width="50" height="50" relative="1" as="geometry">
                        <mxPoint x="430" y="390" as="sourcePoint"/>
                        <mxPoint x="480" y="340" as="targetPoint"/>
                    </mxGeometry>
                </mxCell>
                <mxCell id="8baIQIglKr2Zo1Fmop3Y-19" value="propose" style="edgeLabel;html=1;align=center;verticalAlign=middle;resizable=0;points=[];" parent="8baIQIglKr2Zo1Fmop3Y-18" vertex="1" connectable="0">
                    <mxGeometry x="0.0183" y="1" relative="1" as="geometry">
                        <mxPoint as="offset"/>
                    </mxGeometry>
                </mxCell>
                <mxCell id="8baIQIglKr2Zo1Fmop3Y-21" value="&lt;b style=&quot;color: rgb(32, 33, 34); font-family: sans-serif; font-size: 14px; background-color: rgb(248, 249, 250);&quot;&gt;0..1&lt;/b&gt;" style="edgeLabel;html=1;align=center;verticalAlign=middle;resizable=0;points=[];" parent="8baIQIglKr2Zo1Fmop3Y-18" vertex="1" connectable="0">
                    <mxGeometry x="0.92" y="-1" relative="1" as="geometry">
                        <mxPoint x="-8" as="offset"/>
                    </mxGeometry>
                </mxCell>
                <mxCell id="8baIQIglKr2Zo1Fmop3Y-22" value="&lt;b style=&quot;color: rgb(32, 33, 34); font-family: sans-serif; font-size: 14px; background-color: rgb(248, 249, 250);&quot;&gt;0..*&lt;/b&gt;" style="edgeLabel;html=1;align=center;verticalAlign=middle;resizable=0;points=[];" parent="8baIQIglKr2Zo1Fmop3Y-18" vertex="1" connectable="0">
                    <mxGeometry x="-0.9244" relative="1" as="geometry">
                        <mxPoint x="9" as="offset"/>
                    </mxGeometry>
                </mxCell>
            </root>
        </mxGraphModel>
    </diagram>
</mxfile>